<?xml version="1.0" encoding="utf-8" standalone="no"?>
<!DOCTYPE svg PUBLIC "-//W3C//DTD SVG 1.1//EN"
  "http://www.w3.org/Graphics/SVG/1.1/DTD/svg11.dtd">
<!-- Created with matplotlib (https://matplotlib.org/) -->
<svg height="576pt" version="1.1" viewBox="0 0 1080 576" width="1080pt" xmlns="http://www.w3.org/2000/svg" xmlns:xlink="http://www.w3.org/1999/xlink">
 <metadata>
  <rdf:RDF xmlns:cc="http://creativecommons.org/ns#" xmlns:dc="http://purl.org/dc/elements/1.1/" xmlns:rdf="http://www.w3.org/1999/02/22-rdf-syntax-ns#">
   <cc:Work>
    <dc:type rdf:resource="http://purl.org/dc/dcmitype/StillImage"/>
    <dc:date>2021-09-21T13:07:33.631904</dc:date>
    <dc:format>image/svg+xml</dc:format>
    <dc:creator>
     <cc:Agent>
      <dc:title>Matplotlib v3.3.4, https://matplotlib.org/</dc:title>
     </cc:Agent>
    </dc:creator>
   </cc:Work>
  </rdf:RDF>
 </metadata>
 <defs>
  <style type="text/css">*{stroke-linecap:butt;stroke-linejoin:round;}</style>
 </defs>
 <g id="figure_1">
  <g id="patch_1">
   <path d="M 0 576 
L 1080 576 
L 1080 0 
L 0 0 
z
" style="fill:#ffffff;"/>
  </g>
  <g id="axes_1">
   <g id="patch_2">
    <path d="M 135 504 
L 972 504 
L 972 69.12 
L 135 69.12 
z
" style="fill:#eaeaf2;"/>
   </g>
   <g id="matplotlib.axis_1">
    <g id="xtick_1">
     <g id="line2d_1">
      <path clip-path="url(#paa42d59d4d)" d="M 173.045455 504 
L 173.045455 69.12 
" style="fill:none;stroke:#ffffff;stroke-linecap:round;"/>
     </g>
     <g id="line2d_2"/>
     <g id="text_1">
      <!-- 2019-01 -->
      <g style="fill:#262626;" transform="translate(145.52397 521.736719)scale(0.15 -0.15)">
       <defs>
        <path d="M 50.59375 12.75 
L 50.59375 0 
L 2.484375 0 
Q 3.265625 7.234375 7.171875 13.703125 
Q 11.078125 20.171875 22.609375 30.859375 
Q 31.890625 39.5 33.984375 42.578125 
Q 36.8125 46.828125 36.8125 50.984375 
Q 36.8125 55.5625 34.34375 58.03125 
Q 31.890625 60.5 27.546875 60.5 
Q 23.25 60.5 20.703125 57.90625 
Q 18.171875 55.328125 17.78125 49.3125 
L 4.109375 50.6875 
Q 5.328125 62.015625 11.765625 66.9375 
Q 18.21875 71.875 27.875 71.875 
Q 38.484375 71.875 44.53125 66.15625 
Q 50.59375 60.453125 50.59375 51.953125 
Q 50.59375 47.125 48.859375 42.75 
Q 47.125 38.375 43.359375 33.59375 
Q 40.875 30.421875 34.375 24.453125 
Q 27.875 18.5 26.140625 16.546875 
Q 24.421875 14.59375 23.34375 12.75 
z
" id="Arial-BoldMT-50"/>
        <path d="M 27.4375 71.875 
Q 37.84375 71.875 43.703125 64.453125 
Q 50.6875 55.671875 50.6875 35.296875 
Q 50.6875 14.984375 43.65625 6.109375 
Q 37.84375 -1.21875 27.4375 -1.21875 
Q 17 -1.21875 10.59375 6.8125 
Q 4.203125 14.84375 4.203125 35.453125 
Q 4.203125 55.671875 11.234375 64.546875 
Q 17.046875 71.875 27.4375 71.875 
z
M 27.4375 60.5 
Q 24.953125 60.5 23 58.90625 
Q 21.046875 57.328125 19.96875 53.21875 
Q 18.5625 47.90625 18.5625 35.296875 
Q 18.5625 22.703125 19.828125 17.984375 
Q 21.09375 13.28125 23.015625 11.71875 
Q 24.953125 10.15625 27.4375 10.15625 
Q 29.9375 10.15625 31.890625 11.734375 
Q 33.84375 13.328125 34.90625 17.4375 
Q 36.328125 22.703125 36.328125 35.296875 
Q 36.328125 47.90625 35.0625 52.609375 
Q 33.796875 57.328125 31.859375 58.90625 
Q 29.9375 60.5 27.4375 60.5 
z
" id="Arial-BoldMT-48"/>
        <path d="M 39.359375 0 
L 25.640625 0 
L 25.640625 51.703125 
Q 18.109375 44.671875 7.90625 41.3125 
L 7.90625 53.765625 
Q 13.28125 55.515625 19.578125 60.421875 
Q 25.875 65.328125 28.21875 71.875 
L 39.359375 71.875 
z
" id="Arial-BoldMT-49"/>
        <path d="M 4.546875 16.546875 
L 17.828125 18.015625 
Q 18.3125 13.96875 20.359375 12.015625 
Q 22.40625 10.0625 25.78125 10.0625 
Q 30.03125 10.0625 33 13.96875 
Q 35.984375 17.875 36.8125 30.171875 
Q 31.640625 24.171875 23.875 24.171875 
Q 15.4375 24.171875 9.296875 30.6875 
Q 3.171875 37.203125 3.171875 47.65625 
Q 3.171875 58.546875 9.640625 65.203125 
Q 16.109375 71.875 26.125 71.875 
Q 37.015625 71.875 44 63.453125 
Q 50.984375 55.03125 50.984375 35.75 
Q 50.984375 16.109375 43.703125 7.421875 
Q 36.421875 -1.265625 24.75 -1.265625 
Q 16.359375 -1.265625 11.171875 3.203125 
Q 6 7.671875 4.546875 16.546875 
z
M 35.59375 46.53125 
Q 35.59375 53.171875 32.546875 56.828125 
Q 29.5 60.5 25.484375 60.5 
Q 21.6875 60.5 19.171875 57.5 
Q 16.65625 54.5 16.65625 47.65625 
Q 16.65625 40.71875 19.390625 37.46875 
Q 22.125 34.234375 26.21875 34.234375 
Q 30.171875 34.234375 32.875 37.359375 
Q 35.59375 40.484375 35.59375 46.53125 
z
" id="Arial-BoldMT-57"/>
        <path d="M 5.609375 19.09375 
L 5.609375 32.8125 
L 32.5625 32.8125 
L 32.5625 19.09375 
z
" id="Arial-BoldMT-45"/>
       </defs>
       <use xlink:href="#Arial-BoldMT-50"/>
       <use x="55.615234" xlink:href="#Arial-BoldMT-48"/>
       <use x="111.230469" xlink:href="#Arial-BoldMT-49"/>
       <use x="166.845703" xlink:href="#Arial-BoldMT-57"/>
       <use x="222.460938" xlink:href="#Arial-BoldMT-45"/>
       <use x="255.761719" xlink:href="#Arial-BoldMT-48"/>
       <use x="311.376953" xlink:href="#Arial-BoldMT-49"/>
      </g>
     </g>
    </g>
    <g id="xtick_2">
     <g id="line2d_3">
      <path clip-path="url(#paa42d59d4d)" d="M 264.998215 504 
L 264.998215 69.12 
" style="fill:none;stroke:#ffffff;stroke-linecap:round;"/>
     </g>
     <g id="line2d_4"/>
     <g id="text_2">
      <!-- 2019-05 -->
      <g style="fill:#262626;" transform="translate(237.47673 521.736719)scale(0.15 -0.15)">
       <defs>
        <path d="M 4.4375 18.40625 
L 18.109375 19.828125 
Q 18.703125 15.1875 21.578125 12.46875 
Q 24.46875 9.765625 28.21875 9.765625 
Q 32.515625 9.765625 35.5 13.25 
Q 38.484375 16.75 38.484375 23.78125 
Q 38.484375 30.375 35.515625 33.671875 
Q 32.5625 36.96875 27.828125 36.96875 
Q 21.921875 36.96875 17.234375 31.734375 
L 6.109375 33.34375 
L 13.140625 70.609375 
L 49.421875 70.609375 
L 49.421875 57.765625 
L 23.53125 57.765625 
L 21.390625 45.609375 
Q 25.984375 47.90625 30.765625 47.90625 
Q 39.890625 47.90625 46.234375 41.265625 
Q 52.59375 34.625 52.59375 24.03125 
Q 52.59375 15.1875 47.46875 8.25 
Q 40.484375 -1.21875 28.078125 -1.21875 
Q 18.171875 -1.21875 11.921875 4.09375 
Q 5.671875 9.421875 4.4375 18.40625 
z
" id="Arial-BoldMT-53"/>
       </defs>
       <use xlink:href="#Arial-BoldMT-50"/>
       <use x="55.615234" xlink:href="#Arial-BoldMT-48"/>
       <use x="111.230469" xlink:href="#Arial-BoldMT-49"/>
       <use x="166.845703" xlink:href="#Arial-BoldMT-57"/>
       <use x="222.460938" xlink:href="#Arial-BoldMT-45"/>
       <use x="255.761719" xlink:href="#Arial-BoldMT-48"/>
       <use x="311.376953" xlink:href="#Arial-BoldMT-53"/>
      </g>
     </g>
    </g>
    <g id="xtick_3">
     <g id="line2d_5">
      <path clip-path="url(#paa42d59d4d)" d="M 359.249794 504 
L 359.249794 69.12 
" style="fill:none;stroke:#ffffff;stroke-linecap:round;"/>
     </g>
     <g id="line2d_6"/>
     <g id="text_3">
      <!-- 2019-09 -->
      <g style="fill:#262626;" transform="translate(331.72831 521.736719)scale(0.15 -0.15)">
       <use xlink:href="#Arial-BoldMT-50"/>
       <use x="55.615234" xlink:href="#Arial-BoldMT-48"/>
       <use x="111.230469" xlink:href="#Arial-BoldMT-49"/>
       <use x="166.845703" xlink:href="#Arial-BoldMT-57"/>
       <use x="222.460938" xlink:href="#Arial-BoldMT-45"/>
       <use x="255.761719" xlink:href="#Arial-BoldMT-48"/>
       <use x="311.376953" xlink:href="#Arial-BoldMT-57"/>
      </g>
     </g>
    </g>
    <g id="xtick_4">
     <g id="line2d_7">
      <path clip-path="url(#paa42d59d4d)" d="M 452.7351 504 
L 452.7351 69.12 
" style="fill:none;stroke:#ffffff;stroke-linecap:round;"/>
     </g>
     <g id="line2d_8"/>
     <g id="text_4">
      <!-- 2020-01 -->
      <g style="fill:#262626;" transform="translate(425.213616 521.736719)scale(0.15 -0.15)">
       <use xlink:href="#Arial-BoldMT-50"/>
       <use x="55.615234" xlink:href="#Arial-BoldMT-48"/>
       <use x="111.230469" xlink:href="#Arial-BoldMT-50"/>
       <use x="166.845703" xlink:href="#Arial-BoldMT-48"/>
       <use x="222.460938" xlink:href="#Arial-BoldMT-45"/>
       <use x="255.761719" xlink:href="#Arial-BoldMT-48"/>
       <use x="311.376953" xlink:href="#Arial-BoldMT-49"/>
      </g>
     </g>
    </g>
    <g id="xtick_5">
     <g id="line2d_9">
      <path clip-path="url(#paa42d59d4d)" d="M 545.454133 504 
L 545.454133 69.12 
" style="fill:none;stroke:#ffffff;stroke-linecap:round;"/>
     </g>
     <g id="line2d_10"/>
     <g id="text_5">
      <!-- 2020-05 -->
      <g style="fill:#262626;" transform="translate(517.932649 521.736719)scale(0.15 -0.15)">
       <use xlink:href="#Arial-BoldMT-50"/>
       <use x="55.615234" xlink:href="#Arial-BoldMT-48"/>
       <use x="111.230469" xlink:href="#Arial-BoldMT-50"/>
       <use x="166.845703" xlink:href="#Arial-BoldMT-48"/>
       <use x="222.460938" xlink:href="#Arial-BoldMT-45"/>
       <use x="255.761719" xlink:href="#Arial-BoldMT-48"/>
       <use x="311.376953" xlink:href="#Arial-BoldMT-53"/>
      </g>
     </g>
    </g>
    <g id="xtick_6">
     <g id="line2d_11">
      <path clip-path="url(#paa42d59d4d)" d="M 639.705713 504 
L 639.705713 69.12 
" style="fill:none;stroke:#ffffff;stroke-linecap:round;"/>
     </g>
     <g id="line2d_12"/>
     <g id="text_6">
      <!-- 2020-09 -->
      <g style="fill:#262626;" transform="translate(612.184228 521.736719)scale(0.15 -0.15)">
       <use xlink:href="#Arial-BoldMT-50"/>
       <use x="55.615234" xlink:href="#Arial-BoldMT-48"/>
       <use x="111.230469" xlink:href="#Arial-BoldMT-50"/>
       <use x="166.845703" xlink:href="#Arial-BoldMT-48"/>
       <use x="222.460938" xlink:href="#Arial-BoldMT-45"/>
       <use x="255.761719" xlink:href="#Arial-BoldMT-48"/>
       <use x="311.376953" xlink:href="#Arial-BoldMT-57"/>
      </g>
     </g>
    </g>
    <g id="xtick_7">
     <g id="line2d_13">
      <path clip-path="url(#paa42d59d4d)" d="M 733.191019 504 
L 733.191019 69.12 
" style="fill:none;stroke:#ffffff;stroke-linecap:round;"/>
     </g>
     <g id="line2d_14"/>
     <g id="text_7">
      <!-- 2021-01 -->
      <g style="fill:#262626;" transform="translate(705.669535 521.736719)scale(0.15 -0.15)">
       <use xlink:href="#Arial-BoldMT-50"/>
       <use x="55.615234" xlink:href="#Arial-BoldMT-48"/>
       <use x="111.230469" xlink:href="#Arial-BoldMT-50"/>
       <use x="166.845703" xlink:href="#Arial-BoldMT-49"/>
       <use x="222.460938" xlink:href="#Arial-BoldMT-45"/>
       <use x="255.761719" xlink:href="#Arial-BoldMT-48"/>
       <use x="311.376953" xlink:href="#Arial-BoldMT-49"/>
      </g>
     </g>
    </g>
    <g id="xtick_8">
     <g id="line2d_15">
      <path clip-path="url(#paa42d59d4d)" d="M 825.143779 504 
L 825.143779 69.12 
" style="fill:none;stroke:#ffffff;stroke-linecap:round;"/>
     </g>
     <g id="line2d_16"/>
     <g id="text_8">
      <!-- 2021-05 -->
      <g style="fill:#262626;" transform="translate(797.622295 521.736719)scale(0.15 -0.15)">
       <use xlink:href="#Arial-BoldMT-50"/>
       <use x="55.615234" xlink:href="#Arial-BoldMT-48"/>
       <use x="111.230469" xlink:href="#Arial-BoldMT-50"/>
       <use x="166.845703" xlink:href="#Arial-BoldMT-49"/>
       <use x="222.460938" xlink:href="#Arial-BoldMT-45"/>
       <use x="255.761719" xlink:href="#Arial-BoldMT-48"/>
       <use x="311.376953" xlink:href="#Arial-BoldMT-53"/>
      </g>
     </g>
    </g>
    <g id="xtick_9">
     <g id="line2d_17">
      <path clip-path="url(#paa42d59d4d)" d="M 919.395358 504 
L 919.395358 69.12 
" style="fill:none;stroke:#ffffff;stroke-linecap:round;"/>
     </g>
     <g id="line2d_18"/>
     <g id="text_9">
      <!-- 2021-09 -->
      <g style="fill:#262626;" transform="translate(891.873874 521.736719)scale(0.15 -0.15)">
       <use xlink:href="#Arial-BoldMT-50"/>
       <use x="55.615234" xlink:href="#Arial-BoldMT-48"/>
       <use x="111.230469" xlink:href="#Arial-BoldMT-50"/>
       <use x="166.845703" xlink:href="#Arial-BoldMT-49"/>
       <use x="222.460938" xlink:href="#Arial-BoldMT-45"/>
       <use x="255.761719" xlink:href="#Arial-BoldMT-48"/>
       <use x="311.376953" xlink:href="#Arial-BoldMT-57"/>
      </g>
     </g>
    </g>
   </g>
   <g id="matplotlib.axis_2">
    <g id="ytick_1">
     <g id="line2d_19">
      <path clip-path="url(#paa42d59d4d)" d="M 135 451.310504 
L 972 451.310504 
" style="fill:none;stroke:#ffffff;stroke-linecap:round;"/>
     </g>
     <g id="line2d_20"/>
     <g id="text_10">
      <!-- −40 -->
      <g style="fill:#262626;" transform="translate(102.55625 456.678863)scale(0.15 -0.15)">
       <defs>
        <path d="M 4.15625 28.90625 
L 4.15625 41.75 
L 54.203125 41.75 
L 54.203125 28.90625 
z
" id="Arial-BoldMT-8722"/>
        <path d="M 31.15625 0 
L 31.15625 14.40625 
L 1.859375 14.40625 
L 1.859375 26.421875 
L 32.90625 71.875 
L 44.4375 71.875 
L 44.4375 26.46875 
L 53.328125 26.46875 
L 53.328125 14.40625 
L 44.4375 14.40625 
L 44.4375 0 
z
M 31.15625 26.46875 
L 31.15625 50.921875 
L 14.703125 26.46875 
z
" id="Arial-BoldMT-52"/>
       </defs>
       <use xlink:href="#Arial-BoldMT-8722"/>
       <use x="58.398438" xlink:href="#Arial-BoldMT-52"/>
       <use x="114.013672" xlink:href="#Arial-BoldMT-48"/>
      </g>
     </g>
    </g>
    <g id="ytick_2">
     <g id="line2d_21">
      <path clip-path="url(#paa42d59d4d)" d="M 135 365.383807 
L 972 365.383807 
" style="fill:none;stroke:#ffffff;stroke-linecap:round;"/>
     </g>
     <g id="line2d_22"/>
     <g id="text_11">
      <!-- −20 -->
      <g style="fill:#262626;" transform="translate(102.55625 370.752166)scale(0.15 -0.15)">
       <use xlink:href="#Arial-BoldMT-8722"/>
       <use x="58.398438" xlink:href="#Arial-BoldMT-50"/>
       <use x="114.013672" xlink:href="#Arial-BoldMT-48"/>
      </g>
     </g>
    </g>
    <g id="ytick_3">
     <g id="line2d_23">
      <path clip-path="url(#paa42d59d4d)" d="M 135 279.45711 
L 972 279.45711 
" style="fill:none;stroke:#ffffff;stroke-linecap:round;"/>
     </g>
     <g id="line2d_24"/>
     <g id="text_12">
      <!-- 0 -->
      <g style="fill:#262626;" transform="translate(119.658594 284.82547)scale(0.15 -0.15)">
       <use xlink:href="#Arial-BoldMT-48"/>
      </g>
     </g>
    </g>
    <g id="ytick_4">
     <g id="line2d_25">
      <path clip-path="url(#paa42d59d4d)" d="M 135 193.530414 
L 972 193.530414 
" style="fill:none;stroke:#ffffff;stroke-linecap:round;"/>
     </g>
     <g id="line2d_26"/>
     <g id="text_13">
      <!-- 20 -->
      <g style="fill:#262626;" transform="translate(111.317188 198.898773)scale(0.15 -0.15)">
       <use xlink:href="#Arial-BoldMT-50"/>
       <use x="55.615234" xlink:href="#Arial-BoldMT-48"/>
      </g>
     </g>
    </g>
    <g id="ytick_5">
     <g id="line2d_27">
      <path clip-path="url(#paa42d59d4d)" d="M 135 107.603717 
L 972 107.603717 
" style="fill:none;stroke:#ffffff;stroke-linecap:round;"/>
     </g>
     <g id="line2d_28"/>
     <g id="text_14">
      <!-- 40 -->
      <g style="fill:#262626;" transform="translate(111.317188 112.972077)scale(0.15 -0.15)">
       <use xlink:href="#Arial-BoldMT-52"/>
       <use x="55.615234" xlink:href="#Arial-BoldMT-48"/>
      </g>
     </g>
    </g>
    <g id="text_15">
     <!-- Cumulative return % -->
     <g style="fill:#262626;" transform="translate(96.385469 340.040625)rotate(-90)scale(0.11 -0.11)">
      <defs>
       <path d="M 53.078125 26.3125 
L 67.09375 21.875 
Q 63.875 10.15625 56.375 4.46875 
Q 48.875 -1.21875 37.359375 -1.21875 
Q 23.09375 -1.21875 13.90625 8.515625 
Q 4.734375 18.265625 4.734375 35.15625 
Q 4.734375 53.03125 13.953125 62.90625 
Q 23.1875 72.796875 38.234375 72.796875 
Q 51.375 72.796875 59.578125 65.046875 
Q 64.453125 60.453125 66.890625 51.859375 
L 52.59375 48.4375 
Q 51.3125 54 47.28125 57.21875 
Q 43.265625 60.453125 37.5 60.453125 
Q 29.546875 60.453125 24.578125 54.734375 
Q 19.625 49.03125 19.625 36.234375 
Q 19.625 22.65625 24.5 16.890625 
Q 29.390625 11.140625 37.203125 11.140625 
Q 42.96875 11.140625 47.109375 14.796875 
Q 51.265625 18.453125 53.078125 26.3125 
z
" id="Arial-BoldMT-67"/>
       <path d="M 41.3125 0 
L 41.3125 7.765625 
Q 38.484375 3.609375 33.859375 1.21875 
Q 29.25 -1.171875 24.125 -1.171875 
Q 18.890625 -1.171875 14.734375 1.125 
Q 10.59375 3.421875 8.734375 7.5625 
Q 6.890625 11.71875 6.890625 19.046875 
L 6.890625 51.859375 
L 20.609375 51.859375 
L 20.609375 28.03125 
Q 20.609375 17.09375 21.359375 14.625 
Q 22.125 12.15625 24.125 10.71875 
Q 26.125 9.28125 29.203125 9.28125 
Q 32.71875 9.28125 35.5 11.203125 
Q 38.28125 13.140625 39.296875 15.984375 
Q 40.328125 18.84375 40.328125 29.984375 
L 40.328125 51.859375 
L 54.046875 51.859375 
L 54.046875 0 
z
" id="Arial-BoldMT-117"/>
       <path d="M 6.15625 51.859375 
L 18.796875 51.859375 
L 18.796875 44.78125 
Q 25.59375 53.03125 34.96875 53.03125 
Q 39.9375 53.03125 43.59375 50.96875 
Q 47.265625 48.921875 49.609375 44.78125 
Q 53.03125 48.921875 56.984375 50.96875 
Q 60.9375 53.03125 65.4375 53.03125 
Q 71.140625 53.03125 75.09375 50.703125 
Q 79.046875 48.390625 81 43.890625 
Q 82.421875 40.578125 82.421875 33.15625 
L 82.421875 0 
L 68.703125 0 
L 68.703125 29.640625 
Q 68.703125 37.359375 67.28125 39.59375 
Q 65.375 42.53125 61.421875 42.53125 
Q 58.546875 42.53125 56 40.765625 
Q 53.46875 39.015625 52.34375 35.625 
Q 51.21875 32.234375 51.21875 24.90625 
L 51.21875 0 
L 37.5 0 
L 37.5 28.421875 
Q 37.5 35.984375 36.765625 38.171875 
Q 36.03125 40.375 34.484375 41.453125 
Q 32.953125 42.53125 30.328125 42.53125 
Q 27.15625 42.53125 24.609375 40.8125 
Q 22.078125 39.109375 20.96875 35.890625 
Q 19.875 32.671875 19.875 25.203125 
L 19.875 0 
L 6.15625 0 
z
" id="Arial-BoldMT-109"/>
       <path d="M 7.171875 0 
L 7.171875 71.578125 
L 20.90625 71.578125 
L 20.90625 0 
z
" id="Arial-BoldMT-108"/>
       <path d="M 17.4375 36.03125 
L 4.984375 38.28125 
Q 7.078125 45.796875 12.203125 49.40625 
Q 17.328125 53.03125 27.4375 53.03125 
Q 36.625 53.03125 41.109375 50.859375 
Q 45.609375 48.6875 47.4375 45.34375 
Q 49.265625 42 49.265625 33.0625 
L 49.125 17.046875 
Q 49.125 10.203125 49.78125 6.953125 
Q 50.4375 3.71875 52.25 0 
L 38.671875 0 
Q 38.140625 1.375 37.359375 4.046875 
Q 37.015625 5.28125 36.859375 5.671875 
Q 33.34375 2.25 29.34375 0.53125 
Q 25.34375 -1.171875 20.796875 -1.171875 
Q 12.796875 -1.171875 8.171875 3.171875 
Q 3.5625 7.515625 3.5625 14.15625 
Q 3.5625 18.5625 5.65625 22 
Q 7.765625 25.4375 11.546875 27.265625 
Q 15.328125 29.109375 22.46875 30.46875 
Q 32.078125 32.28125 35.796875 33.84375 
L 35.796875 35.203125 
Q 35.796875 39.15625 33.84375 40.84375 
Q 31.890625 42.53125 26.46875 42.53125 
Q 22.796875 42.53125 20.75 41.09375 
Q 18.703125 39.65625 17.4375 36.03125 
z
M 35.796875 24.90625 
Q 33.15625 24.03125 27.4375 22.796875 
Q 21.734375 21.578125 19.96875 20.40625 
Q 17.28125 18.5 17.28125 15.578125 
Q 17.28125 12.703125 19.421875 10.59375 
Q 21.578125 8.5 24.90625 8.5 
Q 28.609375 8.5 31.984375 10.9375 
Q 34.46875 12.796875 35.25 15.484375 
Q 35.796875 17.234375 35.796875 22.171875 
z
" id="Arial-BoldMT-97"/>
       <path d="M 30.953125 51.859375 
L 30.953125 40.921875 
L 21.578125 40.921875 
L 21.578125 20.015625 
Q 21.578125 13.671875 21.84375 12.625 
Q 22.125 11.578125 23.078125 10.890625 
Q 24.03125 10.203125 25.390625 10.203125 
Q 27.296875 10.203125 30.90625 11.53125 
L 32.078125 0.875 
Q 27.296875 -1.171875 21.234375 -1.171875 
Q 17.53125 -1.171875 14.546875 0.0625 
Q 11.578125 1.3125 10.1875 3.296875 
Q 8.796875 5.28125 8.25 8.640625 
Q 7.8125 11.03125 7.8125 18.3125 
L 7.8125 40.921875 
L 1.515625 40.921875 
L 1.515625 51.859375 
L 7.8125 51.859375 
L 7.8125 62.15625 
L 21.578125 70.171875 
L 21.578125 51.859375 
z
" id="Arial-BoldMT-116"/>
       <path d="M 7.171875 58.890625 
L 7.171875 71.578125 
L 20.90625 71.578125 
L 20.90625 58.890625 
z
M 7.171875 0 
L 7.171875 51.859375 
L 20.90625 51.859375 
L 20.90625 0 
z
" id="Arial-BoldMT-105"/>
       <path d="M 21.4375 0 
L 0.53125 51.859375 
L 14.9375 51.859375 
L 24.703125 25.390625 
L 27.546875 16.546875 
Q 28.65625 19.921875 28.953125 21 
Q 29.640625 23.1875 30.421875 25.390625 
L 40.28125 51.859375 
L 54.390625 51.859375 
L 33.796875 0 
z
" id="Arial-BoldMT-118"/>
       <path d="M 37.203125 16.5 
L 50.875 14.203125 
Q 48.25 6.6875 42.546875 2.75 
Q 36.859375 -1.171875 28.328125 -1.171875 
Q 14.796875 -1.171875 8.296875 7.671875 
Q 3.171875 14.75 3.171875 25.53125 
Q 3.171875 38.421875 9.90625 45.71875 
Q 16.65625 53.03125 26.953125 53.03125 
Q 38.53125 53.03125 45.21875 45.390625 
Q 51.90625 37.75 51.609375 21.96875 
L 17.234375 21.96875 
Q 17.390625 15.875 20.5625 12.46875 
Q 23.734375 9.078125 28.46875 9.078125 
Q 31.6875 9.078125 33.875 10.828125 
Q 36.078125 12.59375 37.203125 16.5 
z
M 37.984375 30.375 
Q 37.84375 36.328125 34.90625 39.421875 
Q 31.984375 42.53125 27.78125 42.53125 
Q 23.296875 42.53125 20.359375 39.265625 
Q 17.4375 35.984375 17.484375 30.375 
z
" id="Arial-BoldMT-101"/>
       <path id="Arial-BoldMT-32"/>
       <path d="M 20.3125 0 
L 6.59375 0 
L 6.59375 51.859375 
L 19.34375 51.859375 
L 19.34375 44.484375 
Q 22.609375 49.703125 25.21875 51.359375 
Q 27.828125 53.03125 31.15625 53.03125 
Q 35.84375 53.03125 40.1875 50.4375 
L 35.9375 38.484375 
Q 32.46875 40.71875 29.5 40.71875 
Q 26.609375 40.71875 24.609375 39.125 
Q 22.609375 37.546875 21.453125 33.390625 
Q 20.3125 29.25 20.3125 16.015625 
z
" id="Arial-BoldMT-114"/>
       <path d="M 54.34375 0 
L 40.625 0 
L 40.625 26.46875 
Q 40.625 34.859375 39.75 37.328125 
Q 38.875 39.796875 36.890625 41.15625 
Q 34.90625 42.53125 32.125 42.53125 
Q 28.5625 42.53125 25.734375 40.578125 
Q 22.90625 38.625 21.84375 35.390625 
Q 20.796875 32.171875 20.796875 23.484375 
L 20.796875 0 
L 7.078125 0 
L 7.078125 51.859375 
L 19.828125 51.859375 
L 19.828125 44.234375 
Q 26.609375 53.03125 36.921875 53.03125 
Q 41.453125 53.03125 45.203125 51.390625 
Q 48.96875 49.75 50.890625 47.203125 
Q 52.828125 44.671875 53.578125 41.453125 
Q 54.34375 38.234375 54.34375 32.234375 
z
" id="Arial-BoldMT-110"/>
       <path d="M 4.34375 53.90625 
Q 4.34375 63.53125 8.5625 68.15625 
Q 12.796875 72.796875 20.015625 72.796875 
Q 27.484375 72.796875 31.703125 68.1875 
Q 35.9375 63.578125 35.9375 53.90625 
Q 35.9375 44.28125 31.703125 39.640625 
Q 27.484375 35.015625 20.265625 35.015625 
Q 12.796875 35.015625 8.5625 39.625 
Q 4.34375 44.234375 4.34375 53.90625 
z
M 15.046875 54 
Q 15.046875 47.015625 16.65625 44.625 
Q 17.875 42.875 20.015625 42.875 
Q 22.21875 42.875 23.4375 44.625 
Q 25 47.015625 25 54 
Q 25 60.984375 23.4375 63.328125 
Q 22.21875 65.140625 20.015625 65.140625 
Q 17.875 65.140625 16.65625 63.375 
Q 15.046875 60.984375 15.046875 54 
z
M 30.46875 -2.734375 
L 20.3125 -2.734375 
L 58.453125 72.796875 
L 68.3125 72.796875 
z
M 52.640625 16.0625 
Q 52.640625 25.6875 56.859375 30.328125 
Q 61.078125 34.96875 68.40625 34.96875 
Q 75.78125 34.96875 80 30.328125 
Q 84.234375 25.6875 84.234375 16.0625 
Q 84.234375 6.390625 80 1.75 
Q 75.78125 -2.875 68.5625 -2.875 
Q 61.078125 -2.875 56.859375 1.75 
Q 52.640625 6.390625 52.640625 16.0625 
z
M 63.328125 16.109375 
Q 63.328125 9.125 64.9375 6.78125 
Q 66.15625 4.984375 68.3125 4.984375 
Q 70.515625 4.984375 71.6875 6.734375 
Q 73.296875 9.125 73.296875 16.109375 
Q 73.296875 23.09375 71.734375 25.484375 
Q 70.515625 27.25 68.3125 27.25 
Q 66.109375 27.25 64.9375 25.484375 
Q 63.328125 23.09375 63.328125 16.109375 
z
" id="Arial-BoldMT-37"/>
      </defs>
      <use xlink:href="#Arial-BoldMT-67"/>
      <use x="72.216797" xlink:href="#Arial-BoldMT-117"/>
      <use x="133.300781" xlink:href="#Arial-BoldMT-109"/>
      <use x="222.216797" xlink:href="#Arial-BoldMT-117"/>
      <use x="283.300781" xlink:href="#Arial-BoldMT-108"/>
      <use x="311.083984" xlink:href="#Arial-BoldMT-97"/>
      <use x="366.699219" xlink:href="#Arial-BoldMT-116"/>
      <use x="400" xlink:href="#Arial-BoldMT-105"/>
      <use x="427.783203" xlink:href="#Arial-BoldMT-118"/>
      <use x="483.398438" xlink:href="#Arial-BoldMT-101"/>
      <use x="539.013672" xlink:href="#Arial-BoldMT-32"/>
      <use x="566.796875" xlink:href="#Arial-BoldMT-114"/>
      <use x="605.712891" xlink:href="#Arial-BoldMT-101"/>
      <use x="661.328125" xlink:href="#Arial-BoldMT-116"/>
      <use x="694.628906" xlink:href="#Arial-BoldMT-117"/>
      <use x="755.712891" xlink:href="#Arial-BoldMT-114"/>
      <use x="794.628906" xlink:href="#Arial-BoldMT-110"/>
      <use x="855.712891" xlink:href="#Arial-BoldMT-32"/>
      <use x="883.496094" xlink:href="#Arial-BoldMT-37"/>
     </g>
    </g>
   </g>
   <g id="line2d_29">
    <path clip-path="url(#paa42d59d4d)" d="M 173.045455 279.45711 
L 196.799918 276.802588 
L 218.255562 298.751824 
L 242.010025 348.382342 
L 264.998215 315.004759 
L 288.752678 347.130679 
L 311.740868 375.133402 
L 335.495331 384.92592 
L 359.249794 387.727782 
L 382.237984 431.432073 
L 405.992447 444.375584 
L 428.980637 484.232727 
L 452.7351 416.582786 
L 476.489563 429.378724 
L 498.71148 481.860032 
L 522.465943 427.014677 
L 545.454133 431.583465 
L 569.208597 378.808056 
L 592.196787 338.389067 
L 615.95125 197.971226 
L 639.705713 241.164245 
L 662.693903 261.1359 
L 686.448366 182.819566 
L 709.436556 135.351848 
L 733.191019 127.50506 
L 756.945482 147.462247 
L 778.401126 133.117465 
L 802.155589 111.611173 
L 825.143779 129.977428 
L 848.898242 101.995279 
L 871.886432 93.99231 
L 895.640895 88.887273 
L 919.395358 94.866653 
L 933.954545 107.319629 
" style="fill:none;stroke:#035593;stroke-linecap:round;stroke-width:3;"/>
   </g>
   <g id="patch_3">
    <path d="M 135 504 
L 135 69.12 
" style="fill:none;"/>
   </g>
   <g id="patch_4">
    <path d="M 972 504 
L 972 69.12 
" style="fill:none;"/>
   </g>
   <g id="patch_5">
    <path d="M 135 504 
L 972 504 
" style="fill:none;"/>
   </g>
   <g id="patch_6">
    <path d="M 135 69.12 
L 972 69.12 
" style="fill:none;"/>
   </g>
   <g id="legend_1">
    <g id="line2d_30">
     <path d="M 144 81.899687 
L 164 81.899687 
" style="fill:none;stroke:#035593;stroke-linecap:round;stroke-width:3;"/>
    </g>
    <g id="line2d_31"/>
    <g id="text_16">
     <!-- Cumulative return trend following strategy -->
     <g style="fill:#262626;" transform="translate(172 85.399687)scale(0.1 -0.1)">
      <defs>
       <path d="M 58.796875 25.09375 
L 68.265625 22.703125 
Q 65.28125 11.03125 57.546875 4.90625 
Q 49.8125 -1.21875 38.625 -1.21875 
Q 27.046875 -1.21875 19.796875 3.484375 
Q 12.546875 8.203125 8.765625 17.140625 
Q 4.984375 26.078125 4.984375 36.328125 
Q 4.984375 47.515625 9.25 55.828125 
Q 13.53125 64.15625 21.40625 68.46875 
Q 29.296875 72.796875 38.765625 72.796875 
Q 49.515625 72.796875 56.828125 67.328125 
Q 64.15625 61.859375 67.046875 51.953125 
L 57.71875 49.75 
Q 55.21875 57.5625 50.484375 61.125 
Q 45.75 64.703125 38.578125 64.703125 
Q 30.328125 64.703125 24.78125 60.734375 
Q 19.234375 56.78125 16.984375 50.109375 
Q 14.75 43.453125 14.75 36.375 
Q 14.75 27.25 17.40625 20.4375 
Q 20.0625 13.625 25.671875 10.25 
Q 31.296875 6.890625 37.84375 6.890625 
Q 45.796875 6.890625 51.3125 11.46875 
Q 56.84375 16.0625 58.796875 25.09375 
z
" id="ArialMT-67"/>
       <path d="M 40.578125 0 
L 40.578125 7.625 
Q 34.515625 -1.171875 24.125 -1.171875 
Q 19.53125 -1.171875 15.546875 0.578125 
Q 11.578125 2.34375 9.640625 5 
Q 7.71875 7.671875 6.9375 11.53125 
Q 6.390625 14.109375 6.390625 19.734375 
L 6.390625 51.859375 
L 15.1875 51.859375 
L 15.1875 23.09375 
Q 15.1875 16.21875 15.71875 13.8125 
Q 16.546875 10.359375 19.234375 8.375 
Q 21.921875 6.390625 25.875 6.390625 
Q 29.828125 6.390625 33.296875 8.421875 
Q 36.765625 10.453125 38.203125 13.9375 
Q 39.65625 17.4375 39.65625 24.078125 
L 39.65625 51.859375 
L 48.4375 51.859375 
L 48.4375 0 
z
" id="ArialMT-117"/>
       <path d="M 6.59375 0 
L 6.59375 51.859375 
L 14.453125 51.859375 
L 14.453125 44.578125 
Q 16.890625 48.390625 20.9375 50.703125 
Q 25 53.03125 30.171875 53.03125 
Q 35.9375 53.03125 39.625 50.640625 
Q 43.3125 48.25 44.828125 43.953125 
Q 50.984375 53.03125 60.84375 53.03125 
Q 68.5625 53.03125 72.703125 48.75 
Q 76.859375 44.484375 76.859375 35.59375 
L 76.859375 0 
L 68.109375 0 
L 68.109375 32.671875 
Q 68.109375 37.9375 67.25 40.25 
Q 66.40625 42.578125 64.15625 43.984375 
Q 61.921875 45.40625 58.890625 45.40625 
Q 53.421875 45.40625 49.796875 41.765625 
Q 46.1875 38.140625 46.1875 30.125 
L 46.1875 0 
L 37.40625 0 
L 37.40625 33.6875 
Q 37.40625 39.546875 35.25 42.46875 
Q 33.109375 45.40625 28.21875 45.40625 
Q 24.515625 45.40625 21.359375 43.453125 
Q 18.21875 41.5 16.796875 37.734375 
Q 15.375 33.984375 15.375 26.90625 
L 15.375 0 
z
" id="ArialMT-109"/>
       <path d="M 6.390625 0 
L 6.390625 71.578125 
L 15.1875 71.578125 
L 15.1875 0 
z
" id="ArialMT-108"/>
       <path d="M 40.4375 6.390625 
Q 35.546875 2.25 31.03125 0.53125 
Q 26.515625 -1.171875 21.34375 -1.171875 
Q 12.796875 -1.171875 8.203125 3 
Q 3.609375 7.171875 3.609375 13.671875 
Q 3.609375 17.484375 5.34375 20.625 
Q 7.078125 23.78125 9.890625 25.6875 
Q 12.703125 27.59375 16.21875 28.5625 
Q 18.796875 29.25 24.03125 29.890625 
Q 34.671875 31.15625 39.703125 32.90625 
Q 39.75 34.71875 39.75 35.203125 
Q 39.75 40.578125 37.25 42.78125 
Q 33.890625 45.75 27.25 45.75 
Q 21.046875 45.75 18.09375 43.578125 
Q 15.140625 41.40625 13.71875 35.890625 
L 5.125 37.0625 
Q 6.296875 42.578125 8.984375 45.96875 
Q 11.671875 49.359375 16.75 51.1875 
Q 21.828125 53.03125 28.515625 53.03125 
Q 35.15625 53.03125 39.296875 51.46875 
Q 43.453125 49.90625 45.40625 47.53125 
Q 47.359375 45.171875 48.140625 41.546875 
Q 48.578125 39.3125 48.578125 33.453125 
L 48.578125 21.734375 
Q 48.578125 9.46875 49.140625 6.21875 
Q 49.703125 2.984375 51.375 0 
L 42.1875 0 
Q 40.828125 2.734375 40.4375 6.390625 
z
M 39.703125 26.03125 
Q 34.90625 24.078125 25.34375 22.703125 
Q 19.921875 21.921875 17.671875 20.9375 
Q 15.4375 19.96875 14.203125 18.09375 
Q 12.984375 16.21875 12.984375 13.921875 
Q 12.984375 10.40625 15.640625 8.0625 
Q 18.3125 5.71875 23.4375 5.71875 
Q 28.515625 5.71875 32.46875 7.9375 
Q 36.421875 10.15625 38.28125 14.015625 
Q 39.703125 17 39.703125 22.796875 
z
" id="ArialMT-97"/>
       <path d="M 25.78125 7.859375 
L 27.046875 0.09375 
Q 23.34375 -0.6875 20.40625 -0.6875 
Q 15.625 -0.6875 12.984375 0.828125 
Q 10.359375 2.34375 9.28125 4.8125 
Q 8.203125 7.28125 8.203125 15.1875 
L 8.203125 45.015625 
L 1.765625 45.015625 
L 1.765625 51.859375 
L 8.203125 51.859375 
L 8.203125 64.703125 
L 16.9375 69.96875 
L 16.9375 51.859375 
L 25.78125 51.859375 
L 25.78125 45.015625 
L 16.9375 45.015625 
L 16.9375 14.703125 
Q 16.9375 10.9375 17.40625 9.859375 
Q 17.875 8.796875 18.921875 8.15625 
Q 19.96875 7.515625 21.921875 7.515625 
Q 23.390625 7.515625 25.78125 7.859375 
z
" id="ArialMT-116"/>
       <path d="M 6.640625 61.46875 
L 6.640625 71.578125 
L 15.4375 71.578125 
L 15.4375 61.46875 
z
M 6.640625 0 
L 6.640625 51.859375 
L 15.4375 51.859375 
L 15.4375 0 
z
" id="ArialMT-105"/>
       <path d="M 21 0 
L 1.265625 51.859375 
L 10.546875 51.859375 
L 21.6875 20.796875 
Q 23.484375 15.765625 25 10.359375 
Q 26.171875 14.453125 28.265625 20.21875 
L 39.796875 51.859375 
L 48.828125 51.859375 
L 29.203125 0 
z
" id="ArialMT-118"/>
       <path d="M 42.09375 16.703125 
L 51.171875 15.578125 
Q 49.03125 7.625 43.21875 3.21875 
Q 37.40625 -1.171875 28.375 -1.171875 
Q 17 -1.171875 10.328125 5.828125 
Q 3.65625 12.84375 3.65625 25.484375 
Q 3.65625 38.578125 10.390625 45.796875 
Q 17.140625 53.03125 27.875 53.03125 
Q 38.28125 53.03125 44.875 45.953125 
Q 51.46875 38.875 51.46875 26.03125 
Q 51.46875 25.25 51.421875 23.6875 
L 12.75 23.6875 
Q 13.234375 15.140625 17.578125 10.59375 
Q 21.921875 6.0625 28.421875 6.0625 
Q 33.25 6.0625 36.671875 8.59375 
Q 40.09375 11.140625 42.09375 16.703125 
z
M 13.234375 30.90625 
L 42.1875 30.90625 
Q 41.609375 37.453125 38.875 40.71875 
Q 34.671875 45.796875 27.984375 45.796875 
Q 21.921875 45.796875 17.796875 41.75 
Q 13.671875 37.703125 13.234375 30.90625 
z
" id="ArialMT-101"/>
       <path id="ArialMT-32"/>
       <path d="M 6.5 0 
L 6.5 51.859375 
L 14.40625 51.859375 
L 14.40625 44 
Q 17.4375 49.515625 20 51.265625 
Q 22.5625 53.03125 25.640625 53.03125 
Q 30.078125 53.03125 34.671875 50.203125 
L 31.640625 42.046875 
Q 28.421875 43.953125 25.203125 43.953125 
Q 22.3125 43.953125 20.015625 42.21875 
Q 17.71875 40.484375 16.75 37.40625 
Q 15.28125 32.71875 15.28125 27.15625 
L 15.28125 0 
z
" id="ArialMT-114"/>
       <path d="M 6.59375 0 
L 6.59375 51.859375 
L 14.5 51.859375 
L 14.5 44.484375 
Q 20.21875 53.03125 31 53.03125 
Q 35.6875 53.03125 39.625 51.34375 
Q 43.5625 49.65625 45.515625 46.921875 
Q 47.46875 44.1875 48.25 40.4375 
Q 48.734375 37.984375 48.734375 31.890625 
L 48.734375 0 
L 39.9375 0 
L 39.9375 31.546875 
Q 39.9375 36.921875 38.90625 39.578125 
Q 37.890625 42.234375 35.28125 43.8125 
Q 32.671875 45.40625 29.15625 45.40625 
Q 23.53125 45.40625 19.453125 41.84375 
Q 15.375 38.28125 15.375 28.328125 
L 15.375 0 
z
" id="ArialMT-110"/>
       <path d="M 40.234375 0 
L 40.234375 6.546875 
Q 35.296875 -1.171875 25.734375 -1.171875 
Q 19.53125 -1.171875 14.328125 2.25 
Q 9.125 5.671875 6.265625 11.796875 
Q 3.421875 17.921875 3.421875 25.875 
Q 3.421875 33.640625 6 39.96875 
Q 8.59375 46.296875 13.765625 49.65625 
Q 18.953125 53.03125 25.34375 53.03125 
Q 30.03125 53.03125 33.6875 51.046875 
Q 37.359375 49.078125 39.65625 45.90625 
L 39.65625 71.578125 
L 48.390625 71.578125 
L 48.390625 0 
z
M 12.453125 25.875 
Q 12.453125 15.921875 16.640625 10.984375 
Q 20.84375 6.0625 26.5625 6.0625 
Q 32.328125 6.0625 36.34375 10.765625 
Q 40.375 15.484375 40.375 25.140625 
Q 40.375 35.796875 36.265625 40.765625 
Q 32.171875 45.75 26.171875 45.75 
Q 20.3125 45.75 16.375 40.96875 
Q 12.453125 36.1875 12.453125 25.875 
z
" id="ArialMT-100"/>
       <path d="M 8.6875 0 
L 8.6875 45.015625 
L 0.921875 45.015625 
L 0.921875 51.859375 
L 8.6875 51.859375 
L 8.6875 57.375 
Q 8.6875 62.59375 9.625 65.140625 
Q 10.890625 68.5625 14.078125 70.671875 
Q 17.28125 72.796875 23.046875 72.796875 
Q 26.765625 72.796875 31.25 71.921875 
L 29.9375 64.265625 
Q 27.203125 64.75 24.75 64.75 
Q 20.75 64.75 19.09375 63.03125 
Q 17.4375 61.328125 17.4375 56.640625 
L 17.4375 51.859375 
L 27.546875 51.859375 
L 27.546875 45.015625 
L 17.4375 45.015625 
L 17.4375 0 
z
" id="ArialMT-102"/>
       <path d="M 3.328125 25.921875 
Q 3.328125 40.328125 11.328125 47.265625 
Q 18.015625 53.03125 27.640625 53.03125 
Q 38.328125 53.03125 45.109375 46.015625 
Q 51.90625 39.015625 51.90625 26.65625 
Q 51.90625 16.65625 48.90625 10.90625 
Q 45.90625 5.171875 40.15625 2 
Q 34.421875 -1.171875 27.640625 -1.171875 
Q 16.75 -1.171875 10.03125 5.8125 
Q 3.328125 12.796875 3.328125 25.921875 
z
M 12.359375 25.921875 
Q 12.359375 15.96875 16.703125 11.015625 
Q 21.046875 6.0625 27.640625 6.0625 
Q 34.1875 6.0625 38.53125 11.03125 
Q 42.875 16.015625 42.875 26.21875 
Q 42.875 35.84375 38.5 40.796875 
Q 34.125 45.75 27.640625 45.75 
Q 21.046875 45.75 16.703125 40.8125 
Q 12.359375 35.890625 12.359375 25.921875 
z
" id="ArialMT-111"/>
       <path d="M 16.15625 0 
L 0.296875 51.859375 
L 9.375 51.859375 
L 17.625 21.921875 
L 20.703125 10.796875 
Q 20.90625 11.625 23.390625 21.484375 
L 31.640625 51.859375 
L 40.671875 51.859375 
L 48.4375 21.78125 
L 51.03125 11.859375 
L 54 21.875 
L 62.890625 51.859375 
L 71.4375 51.859375 
L 55.21875 0 
L 46.09375 0 
L 37.84375 31.0625 
L 35.84375 39.890625 
L 25.34375 0 
z
" id="ArialMT-119"/>
       <path d="M 4.984375 -4.296875 
L 13.53125 -5.5625 
Q 14.0625 -9.515625 16.5 -11.328125 
Q 19.78125 -13.765625 25.4375 -13.765625 
Q 31.546875 -13.765625 34.859375 -11.328125 
Q 38.1875 -8.890625 39.359375 -4.5 
Q 40.046875 -1.8125 39.984375 6.78125 
Q 34.234375 0 25.640625 0 
Q 14.9375 0 9.078125 7.71875 
Q 3.21875 15.4375 3.21875 26.21875 
Q 3.21875 33.640625 5.90625 39.90625 
Q 8.59375 46.1875 13.6875 49.609375 
Q 18.796875 53.03125 25.6875 53.03125 
Q 34.859375 53.03125 40.828125 45.609375 
L 40.828125 51.859375 
L 48.921875 51.859375 
L 48.921875 7.03125 
Q 48.921875 -5.078125 46.453125 -10.125 
Q 44 -15.1875 38.640625 -18.109375 
Q 33.296875 -21.046875 25.484375 -21.046875 
Q 16.21875 -21.046875 10.5 -16.875 
Q 4.78125 -12.703125 4.984375 -4.296875 
z
M 12.25 26.859375 
Q 12.25 16.65625 16.296875 11.96875 
Q 20.359375 7.28125 26.46875 7.28125 
Q 32.515625 7.28125 36.609375 11.9375 
Q 40.71875 16.609375 40.71875 26.5625 
Q 40.71875 36.078125 36.5 40.90625 
Q 32.28125 45.75 26.3125 45.75 
Q 20.453125 45.75 16.34375 40.984375 
Q 12.25 36.234375 12.25 26.859375 
z
" id="ArialMT-103"/>
       <path d="M 3.078125 15.484375 
L 11.765625 16.84375 
Q 12.5 11.625 15.84375 8.84375 
Q 19.1875 6.0625 25.203125 6.0625 
Q 31.25 6.0625 34.171875 8.515625 
Q 37.109375 10.984375 37.109375 14.3125 
Q 37.109375 17.28125 34.515625 19 
Q 32.71875 20.171875 25.53125 21.96875 
Q 15.875 24.421875 12.140625 26.203125 
Q 8.40625 27.984375 6.46875 31.125 
Q 4.546875 34.28125 4.546875 38.09375 
Q 4.546875 41.546875 6.125 44.5 
Q 7.71875 47.46875 10.453125 49.421875 
Q 12.5 50.921875 16.03125 51.96875 
Q 19.578125 53.03125 23.640625 53.03125 
Q 29.734375 53.03125 34.34375 51.265625 
Q 38.96875 49.515625 41.15625 46.5 
Q 43.359375 43.5 44.1875 38.484375 
L 35.59375 37.3125 
Q 35.015625 41.3125 32.203125 43.546875 
Q 29.390625 45.796875 24.265625 45.796875 
Q 18.21875 45.796875 15.625 43.796875 
Q 13.03125 41.796875 13.03125 39.109375 
Q 13.03125 37.40625 14.109375 36.03125 
Q 15.1875 34.625 17.484375 33.6875 
Q 18.796875 33.203125 25.25 31.453125 
Q 34.578125 28.953125 38.25 27.359375 
Q 41.9375 25.78125 44.03125 22.75 
Q 46.140625 19.734375 46.140625 15.234375 
Q 46.140625 10.84375 43.578125 6.953125 
Q 41.015625 3.078125 36.171875 0.953125 
Q 31.34375 -1.171875 25.25 -1.171875 
Q 15.140625 -1.171875 9.84375 3.03125 
Q 4.546875 7.234375 3.078125 15.484375 
z
" id="ArialMT-115"/>
       <path d="M 6.203125 -19.96875 
L 5.21875 -11.71875 
Q 8.109375 -12.5 10.25 -12.5 
Q 13.1875 -12.5 14.9375 -11.515625 
Q 16.703125 -10.546875 17.828125 -8.796875 
Q 18.65625 -7.46875 20.515625 -2.25 
Q 20.75 -1.515625 21.296875 -0.09375 
L 1.609375 51.859375 
L 11.078125 51.859375 
L 21.875 21.828125 
Q 23.96875 16.109375 25.640625 9.8125 
Q 27.15625 15.875 29.25 21.625 
L 40.328125 51.859375 
L 49.125 51.859375 
L 29.390625 -0.875 
Q 26.21875 -9.421875 24.46875 -12.640625 
Q 22.125 -17 19.09375 -19.015625 
Q 16.0625 -21.046875 11.859375 -21.046875 
Q 9.328125 -21.046875 6.203125 -19.96875 
z
" id="ArialMT-121"/>
      </defs>
      <use xlink:href="#ArialMT-67"/>
      <use x="72.216797" xlink:href="#ArialMT-117"/>
      <use x="127.832031" xlink:href="#ArialMT-109"/>
      <use x="211.132812" xlink:href="#ArialMT-117"/>
      <use x="266.748047" xlink:href="#ArialMT-108"/>
      <use x="288.964844" xlink:href="#ArialMT-97"/>
      <use x="344.580078" xlink:href="#ArialMT-116"/>
      <use x="372.363281" xlink:href="#ArialMT-105"/>
      <use x="394.580078" xlink:href="#ArialMT-118"/>
      <use x="444.580078" xlink:href="#ArialMT-101"/>
      <use x="500.195312" xlink:href="#ArialMT-32"/>
      <use x="527.978516" xlink:href="#ArialMT-114"/>
      <use x="561.279297" xlink:href="#ArialMT-101"/>
      <use x="616.894531" xlink:href="#ArialMT-116"/>
      <use x="644.677734" xlink:href="#ArialMT-117"/>
      <use x="700.292969" xlink:href="#ArialMT-114"/>
      <use x="733.59375" xlink:href="#ArialMT-110"/>
      <use x="789.208984" xlink:href="#ArialMT-32"/>
      <use x="816.992188" xlink:href="#ArialMT-116"/>
      <use x="844.775391" xlink:href="#ArialMT-114"/>
      <use x="878.076172" xlink:href="#ArialMT-101"/>
      <use x="933.691406" xlink:href="#ArialMT-110"/>
      <use x="989.306641" xlink:href="#ArialMT-100"/>
      <use x="1044.921875" xlink:href="#ArialMT-32"/>
      <use x="1072.705078" xlink:href="#ArialMT-102"/>
      <use x="1100.488281" xlink:href="#ArialMT-111"/>
      <use x="1156.103516" xlink:href="#ArialMT-108"/>
      <use x="1178.320312" xlink:href="#ArialMT-108"/>
      <use x="1200.537109" xlink:href="#ArialMT-111"/>
      <use x="1256.152344" xlink:href="#ArialMT-119"/>
      <use x="1328.369141" xlink:href="#ArialMT-105"/>
      <use x="1350.585938" xlink:href="#ArialMT-110"/>
      <use x="1406.201172" xlink:href="#ArialMT-103"/>
      <use x="1461.816406" xlink:href="#ArialMT-32"/>
      <use x="1489.599609" xlink:href="#ArialMT-115"/>
      <use x="1539.599609" xlink:href="#ArialMT-116"/>
      <use x="1567.382812" xlink:href="#ArialMT-114"/>
      <use x="1600.683594" xlink:href="#ArialMT-97"/>
      <use x="1656.298828" xlink:href="#ArialMT-116"/>
      <use x="1684.082031" xlink:href="#ArialMT-101"/>
      <use x="1739.697266" xlink:href="#ArialMT-103"/>
      <use x="1795.3125" xlink:href="#ArialMT-121"/>
     </g>
    </g>
   </g>
  </g>
 </g>
 <defs>
  <clipPath id="paa42d59d4d">
   <rect height="434.88" width="837" x="135" y="69.12"/>
  </clipPath>
 </defs>
</svg>
